<?xml version="1.0" encoding="utf-8"?>
<!-- Generator: Adobe Illustrator 18.1.1, SVG Export Plug-In . SVG Version: 6.00 Build 0)  -->
<!DOCTYPE svg PUBLIC "-//W3C//DTD SVG 1.1//EN" "http://www.w3.org/Graphics/SVG/1.1/DTD/svg11.dtd">
<svg version="1.1" id="Layer_1" xmlns="http://www.w3.org/2000/svg" xmlns:xlink="http://www.w3.org/1999/xlink" x="0px" y="0px"
	 viewBox="-154 156 50 50" enable-background="new -154 156 50 50" xml:space="preserve">
<g>
	<path d="M-113.6,159l-23.1,0.6l-16.5,15.7l24,2.1L-113.6,159z M-133.2,168.3c-1.5,0.7-2.8,0.9-2.9,0.4c-0.1-0.5,1.1-1.5,2.6-2.2
		c1.5-0.7,2.8-0.9,2.9-0.4C-130.5,166.6-131.7,167.6-133.2,168.3z"/>
	<path d="M-153.7,177.8l11.9,20.5l23,4.7l-10.7-23.1L-153.7,177.8z M-138.4,196.7c-1.2,0-2.6-0.9-3-1.9c-0.4-1,0.2-1.8,1.5-1.7
		c1.2,0,2.6,0.9,3,1.9C-136.5,196-137.2,196.8-138.4,196.7z M-135.5,190.9c-1.2,0-2.6-0.9-3-1.9c-0.4-1,0.2-1.8,1.5-1.7
		c1.2,0,2.6,0.9,3,1.9C-133.7,190.2-134.3,190.9-135.5,190.9z M-132.7,185.1c-1.2,0-2.6-0.9-3-1.9c-0.4-1,0.2-1.8,1.5-1.7
		c1.2,0,2.6,0.9,3,1.9C-130.8,184.3-131.5,185.1-132.7,185.1z"/>
	<path d="M-111.3,160.3l-15.7,18.5l10.7,23.1l12-19.3L-111.3,160.3z M-120.3,182.4c-0.8,0.3-1.4-0.6-1.3-2c0.1-1.4,0.8-2.7,1.6-3
		c0.8-0.3,1.4,0.6,1.3,2C-118.8,180.7-119.5,182.1-120.3,182.4z M-115,195.4c-0.8,0.3-1.4-0.6-1.4-2c0-1.4,0.7-2.8,1.4-3.1
		c0.8-0.3,1.4,0.6,1.4,2C-113.6,193.7-114.2,195.1-115,195.4z M-113.9,183.6c-0.8,0.3-1.4-0.6-1.4-2c0-1.4,0.7-2.8,1.4-3.1
		c0.8-0.3,1.4,0.6,1.4,1.9C-112.5,181.9-113.1,183.3-113.9,183.6z M-112.8,172c-0.8,0.3-1.4-0.6-1.4-2c0-1.4,0.7-2.8,1.4-3.1
		c0.8-0.3,1.4,0.6,1.4,2C-111.3,170.3-112,171.7-112.8,172z M-108.1,184.8c-0.8,0.3-1.4-0.6-1.3-2c0.1-1.4,0.8-2.7,1.6-3
		s1.4,0.6,1.3,2C-106.6,183.1-107.3,184.5-108.1,184.8z"/>
</g>
</svg>
