<?xml version="1.0" encoding="utf-8"?>
<!-- Generator: Adobe Illustrator 18.1.1, SVG Export Plug-In . SVG Version: 6.00 Build 0)  -->
<!DOCTYPE svg PUBLIC "-//W3C//DTD SVG 1.1//EN" "http://www.w3.org/Graphics/SVG/1.1/DTD/svg11.dtd">
<svg version="1.1" id="Layer_1" xmlns="http://www.w3.org/2000/svg" xmlns:xlink="http://www.w3.org/1999/xlink" x="0px" y="0px"
	 viewBox="-129 131 100 100" enable-background="new -129 131 100 100" xml:space="preserve">
<g>
	<polygon points="-71.2,157.6 -78,157.5 -78.4,177.9 -99.2,198.9 -94.4,203.7 -71.7,180.7 	"/>
	<path d="M-35,164.5c-6.3-16.6-22.3-28.6-41.1-28.9c-8.1-0.1-15.8,1.9-22.4,5.6c-8.3,4.5-15,11.4-19.2,19.9l-1.9-9.1l-6.6,1.4
		l4.3,20.8l5.1,2.2l17.6-11l-3.6-5.8l-8.7,5.5c3.3-7.6,9-13.8,16.2-17.9c5.4-2.9,11.6-4.6,18.2-4.6c15.8,0,29.5,9.6,35.4,23.3
		c0.7,1.7,1.3,3.4,1.7,5.2l0.1,0c0.9,3.2,1.3,6.5,1.3,10c0,21.2-17.3,38.5-38.5,38.5c-17.9,0-33.1-12.3-37.3-29l-6.3,2.8
		c5.4,19,22.9,33,43.6,33c25,0,45.3-20.3,45.3-45.3C-31.8,175.3-32.9,169.6-35,164.5z"/>
</g>
</svg>
