<?xml version="1.0" encoding="utf-8"?>
<!-- Generator: Adobe Illustrator 18.1.1, SVG Export Plug-In . SVG Version: 6.00 Build 0)  -->
<!DOCTYPE svg PUBLIC "-//W3C//DTD SVG 1.1//EN" "http://www.w3.org/Graphics/SVG/1.1/DTD/svg11.dtd">
<svg version="1.1" id="Layer_1" xmlns="http://www.w3.org/2000/svg" xmlns:xlink="http://www.w3.org/1999/xlink" x="0px" y="0px"
	 viewBox="-129 131 100 100" enable-background="new -129 131 100 100" xml:space="preserve">
<g>
	<circle fill="none" cx="-81.4" cy="139.4" r="4.3"/>
	<path fill="none" d="M-117.4,149.6c-4.4,0-8.1,3.7-8.1,8.1c0,4.4,3.7,8.1,8.1,8.1s8.1-3.7,8.1-8.1
		C-109.3,153.2-113,149.6-117.4,149.6z"/>
	<circle fill="none" cx="-37.1" cy="145.3" r="4.6"/>
	<path fill="none" d="M-40.7,210.8c2.7,0,4.9-2.2,4.9-4.9c0-2.7-2.2-4.9-4.9-4.9c-2.7,0-4.9,2.1-4.9,4.9
		C-45.7,208.6-43.4,210.8-40.7,210.8z"/>
	<path fill="none" d="M-76.5,163.4c-10.5,0-19.1,8.6-19.1,19.1c0,10.5,8.6,19.1,19.1,19.1s19.1-8.6,19.1-19.1
		C-57.4,171.9-66,163.4-76.5,163.4z"/>
	<path fill="none" d="M-106.2,207c-5.4,0-9.8,4.4-9.8,9.8c0,5.4,4.4,9.8,9.8,9.8c5.4,0,9.8-4.4,9.8-9.8
		C-96.3,211.5-100.8,207-106.2,207z"/>
	<path d="M-37.1,137.5c-4.3,0-7.8,3.5-7.8,7.8c0,1.7,0.6,3.3,1.6,4.8l-17,17.5c-4.1-4.4-9.8-7.1-16.4-7.1c-0.5,0-0.8,0-1.3,0
		l-1.1-14c2.9-1,5.1-3.8,5.1-7c0-4.1-3.3-7.5-7.5-7.5s-7.5,3.3-7.5,7.5c0,4,3,7.1,6.8,7.5l1.1,13.8c-5.6,1.1-10.3,4.3-13.5,8.7
		l-12.5-7.6c0.5-1.3,0.8-2.5,0.8-4c0-6.2-5.1-11.3-11.3-11.3c-6.2,0-11.3,5.1-11.3,11.3c0,6.2,5.1,11.3,11.3,11.3
		c3.7,0,6.8-1.7,8.9-4.4l12.4,7.5c-1.7,3.2-2.7,6.7-2.7,10.5c0,5.9,2.2,11.1,5.9,15.1l-6,8.6c-2.1-1.4-4.4-2.2-7.1-2.2
		c-7.1,0-13,5.9-13,13c0,7.1,5.9,13,13,13c7.1,0,13-5.9,13-13c0-3.3-1.3-6.4-3.3-8.7l6-8.4c3.8,3.2,8.7,4.9,14,4.9
		c7.1,0,13.5-3.3,17.6-8.6l11,6.4c-0.6,0.8-1,2.1-1,3.3c0,4.4,3.7,8.1,8.1,8.1s8.1-3.7,8.1-8.1c0-4.4-3.7-8.1-8.1-8.1
		c-2.1,0-4,0.8-5.4,2.1l-11.1-6.4c1.9-3.2,2.9-7,2.9-11c0-4.6-1.4-9.1-4-12.5l17.5-17.9c1.1,0.6,2.4,1,3.8,1c4.3,0,7.8-3.5,7.8-7.8
		S-32.8,137.5-37.1,137.5z M-85.7,139.4c0-2.4,1.9-4.3,4.3-4.3s4.3,1.9,4.3,4.3s-1.9,4.3-4.3,4.3S-85.7,141.8-85.7,139.4z
		 M-117.4,165.8c-4.4,0-8.1-3.7-8.1-8.1c0-4.4,3.7-8.1,8.1-8.1s8.1,3.7,8.1,8.1C-109.3,162.1-113,165.8-117.4,165.8z M-40.7,200.8
		c2.7,0,4.9,2.2,4.9,4.9c0,2.7-2.2,4.9-4.9,4.9c-2.7,0-4.9-2.1-4.9-4.8C-45.7,203.1-43.4,200.8-40.7,200.8z M-106.2,226.7
		c-5.4,0-9.8-4.4-9.8-9.8s4.4-9.8,9.8-9.8c5.4,0,9.8,4.4,9.8,9.8S-100.8,226.7-106.2,226.7z M-76.5,201.5
		c-10.5,0-19.1-8.6-19.1-19.1c0-10.5,8.6-19.1,19.1-19.1s19.1,8.6,19.1,19.1C-57.4,192.9-66,201.5-76.5,201.5z M-37.1,149.9
		c-2.5,0-4.6-2.1-4.6-4.6c0-2.5,2.1-4.6,4.6-4.6s4.6,2.1,4.6,4.6C-32.5,147.8-34.5,149.9-37.1,149.9z"/>
</g>
</svg>
